<svg width="155" height="126" viewBox="0 0 155 126" fill="none" xmlns="http://www.w3.org/2000/svg">
<path d="M5.94217 32.4944L144.975 2.50282L146.782 2.11397C147.702 1.91412 148.66 1.97803 149.545 2.29835C150.431 2.61867 151.208 3.18238 151.787 3.92467C152.366 4.66696 152.724 5.55768 152.82 6.4944C152.915 7.43112 152.745 8.3758 152.327 9.2198L97.1256 121.321C96.7684 122.042 96.2433 122.665 95.5946 123.14C94.9459 123.615 94.1926 123.927 93.3981 124.051C92.6012 124.175 91.786 124.103 91.023 123.841C90.26 123.579 89.5722 123.136 89.019 122.549L50.6772 82.1209C50.4045 81.826 50.0737 81.5908 49.7056 81.4301C49.3375 81.2693 48.9401 81.1865 48.5385 81.1868C47.9925 81.1791 47.4548 81.32 46.9828 81.5944C46.5107 81.8689 46.1222 82.2665 45.8588 82.7448L38.0053 97.2711C37.504 98.2396 36.693 99.0126 35.7016 99.467C34.7101 99.9213 33.5951 100.031 32.5342 99.7783L32.4951 99.7696C31.4212 99.5422 30.455 98.9602 29.7518 98.1173C29.0486 97.2744 28.6493 96.2196 28.618 95.1223L27.0448 61.5906C27.026 61.1722 26.9215 60.7621 26.7378 60.3858C26.5405 60.0134 26.2728 59.6828 25.9494 59.4125L3.82977 41.255C3.10271 40.6582 2.55851 39.8686 2.25955 38.9767C1.96059 38.0849 1.91897 37.1268 2.13947 36.2124C2.35996 35.298 2.83362 34.4642 3.5062 33.8066C4.17877 33.149 5.02301 32.6943 5.94217 32.4944ZM5.09296 39.7114L27.2126 57.869C27.5008 58.1012 27.762 58.365 27.9912 58.6556L145.226 5.48744C145.33 5.43933 145.437 5.40151 145.548 5.37446C146 5.25792 146.479 5.30306 146.902 5.50209C147.324 5.70112 147.664 6.04153 147.862 6.46443C148.06 6.88734 148.104 7.36613 147.986 7.81804C147.868 8.26995 147.597 8.66657 147.217 8.93925L50.824 79.7467C51.3132 80.001 51.7548 80.3377 52.1295 80.7421L90.4709 121.17C90.8036 121.52 91.2159 121.785 91.6727 121.941C92.1296 122.098 92.6175 122.142 93.095 122.07C93.5725 121.997 94.0256 121.811 94.4156 121.526C94.8056 121.241 95.1211 120.866 95.3352 120.434L150.537 8.33208C150.784 7.82557 150.883 7.25993 150.824 6.6996C150.765 6.13927 150.55 5.60677 150.203 5.1628C149.856 4.71882 149.392 4.38122 148.862 4.18843C148.333 3.99564 147.76 3.95542 147.209 4.07237L145.359 4.47209L6.36948 34.453C5.81761 34.5724 5.31056 34.8449 4.90634 35.2392C4.50212 35.6334 4.2171 36.1335 4.08389 36.6823C3.95069 37.231 3.97468 37.8061 4.15314 38.3418C4.3316 38.8775 4.6573 39.3522 5.09296 39.7114Z" fill="#fff"/>
<path d="M5.94217 32.4944L144.975 2.50282L146.782 2.11397C147.702 1.91412 148.66 1.97803 149.545 2.29835C150.431 2.61867 151.208 3.18238 151.787 3.92467C152.366 4.66696 152.724 5.55768 152.82 6.4944C152.915 7.43112 152.745 8.3758 152.327 9.2198L97.1256 121.321C96.7684 122.042 96.2433 122.665 95.5946 123.14C94.9459 123.615 94.1926 123.927 93.3981 124.051C92.6012 124.175 91.786 124.103 91.023 123.841C90.26 123.579 89.5722 123.136 89.019 122.549L50.6772 82.1209C50.4045 81.826 50.0737 81.5908 49.7056 81.4301C49.3375 81.2693 48.9401 81.1865 48.5385 81.1868C47.9925 81.1791 47.4548 81.32 46.9828 81.5944C46.5107 81.8689 46.1222 82.2665 45.8588 82.7448L38.0053 97.2711C37.504 98.2396 36.693 99.0126 35.7016 99.467C34.7101 99.9213 33.5951 100.031 32.5342 99.7783L32.4951 99.7696C31.4212 99.5422 30.455 98.9602 29.7518 98.1173C29.0486 97.2744 28.6493 96.2196 28.618 95.1223L27.0448 61.5906C27.026 61.1722 26.9215 60.7621 26.7378 60.3858C26.5405 60.0134 26.2728 59.6828 25.9494 59.4125L3.82977 41.255C3.10271 40.6582 2.55851 39.8686 2.25955 38.9767C1.96059 38.0849 1.91897 37.1268 2.13947 36.2124C2.35996 35.298 2.83362 34.4642 3.5062 33.8066C4.17877 33.149 5.02305 32.6943 5.9422 32.4944H5.94217ZM5.09296 39.7114L27.2126 57.869C27.5008 58.1012 27.762 58.365 27.9912 58.6556C28.1979 58.9141 28.3764 59.194 28.5236 59.4904C28.6779 59.7936 28.7995 60.1123 28.8864 60.4412L28.8842 60.451C28.9758 60.7936 29.0287 61.1454 29.0417 61.4998L30.6144 95.0314C30.6276 95.6908 30.8648 96.3259 31.287 96.8326C31.7091 97.3392 32.2911 97.6871 32.9372 97.819L32.9567 97.8234C33.5934 97.9815 34.2648 97.92 34.8621 97.6487C35.4594 97.3775 35.9476 96.9124 36.2474 96.329L44.1031 81.793C44.5078 81.0453 45.0969 80.4134 45.8144 79.9574C46.5319 79.5013 47.3541 79.2361 48.2028 79.1871L48.2124 79.1892C48.3266 79.1838 48.4404 79.1782 48.5519 79.1824C49.3439 79.1828 50.1238 79.3765 50.824 79.7467C51.3132 80.001 51.7548 80.3377 52.1295 80.7421L90.4709 121.17C90.8036 121.52 91.2158 121.785 91.6727 121.941C92.1296 122.098 92.6175 122.142 93.095 122.07C93.5725 121.997 94.0255 121.811 94.4155 121.526C94.8055 121.241 95.121 120.866 95.3352 120.434L150.537 8.33208C150.784 7.82557 150.883 7.25993 150.824 6.6996C150.765 6.13927 150.55 5.60677 150.203 5.1628C149.856 4.71882 149.392 4.38122 148.862 4.18843C148.333 3.99564 147.76 3.95542 147.209 4.07237L145.359 4.47209L6.36948 34.453C5.81761 34.5724 5.31056 34.8449 4.90634 35.2392C4.50212 35.6334 4.2171 36.1335 4.08389 36.6823C3.95069 37.231 3.97468 37.8061 4.15314 38.3418C4.3316 38.8775 4.6573 39.3522 5.09296 39.7114V39.7114Z" stroke="black" stroke-width="4"/>
<path d="M27.5475 58.8545L28.3737 60.676L28.8841 60.4509L28.8863 60.4412L146.028 7.32424L48.2123 79.1891L48.2028 79.187L47.9438 79.3857L49.1232 80.9986L50.8239 79.7466L147.217 8.93914C147.596 8.66645 147.868 8.26987 147.986 7.81796C148.104 7.36604 148.06 6.88722 147.862 6.46432C147.664 6.04141 147.324 5.70101 146.902 5.50198C146.479 5.30294 146 5.2578 145.548 5.37435C145.437 5.4014 145.33 5.43925 145.226 5.48736L27.9911 58.6555L27.5475 58.8545Z" fill="black" stroke="black" stroke-width="4"/>
</svg>
